<svg width="180" height="56" viewBox="0 0 180 56" fill="none" xmlns="http://www.w3.org/2000/svg" role="img" aria-labelledby="title desc">
  <title id="title">node logo</title>
  <desc id="desc">A connected node mark with the word node.</desc>
  <rect x="1" y="1" width="178" height="54" rx="14" fill="#F7FFFA" stroke="#DDEBE3" stroke-width="2"/>
  <path d="M28 28C28 19.716 34.716 13 43 13C51.284 13 58 19.716 58 28C58 36.284 51.284 43 43 43C34.716 43 28 36.284 28 28Z" fill="#10251B"/>
  <path d="M40.1 22.7C40.1 20.712 41.712 19.1 43.7 19.1C45.688 19.1 47.3 20.712 47.3 22.7C47.3 24.688 45.688 26.3 43.7 26.3C41.712 26.3 40.1 24.688 40.1 22.7Z" fill="#22C76F"/>
  <path d="M35 33.1C35 31.112 36.612 29.5 38.6 29.5C40.588 29.5 42.2 31.112 42.2 33.1C42.2 35.088 40.588 36.7 38.6 36.7C36.612 36.7 35 35.088 35 33.1Z" fill="#FFFFFF"/>
  <path d="M48.2 34.1C48.2 31.781 50.081 29.9 52.4 29.9C54.719 29.9 56.6 31.781 56.6 34.1C56.6 36.419 54.719 38.3 52.4 38.3C50.081 38.3 48.2 36.419 48.2 34.1Z" fill="#FFB23F"/>
  <path d="M41.45 25.35L39.65 30.45" stroke="#DDEBE3" stroke-width="2.2" stroke-linecap="round"/>
  <path d="M46.45 25.05L50.25 31.45" stroke="#DDEBE3" stroke-width="2.2" stroke-linecap="round"/>
  <path d="M71 36.5V20.2H76.4L76.72 22.62C77.76 20.84 79.56 19.88 82.04 19.88C85.86 19.88 88.18 22.52 88.18 26.98V36.5H82.36V27.86C82.36 25.78 81.42 24.72 79.62 24.72C77.82 24.72 76.82 25.86 76.82 27.92V36.5H71Z" fill="#10251B"/>
  <path d="M90.88 28.36C90.88 23.34 94.58 19.86 99.7 19.86C104.86 19.86 108.52 23.34 108.52 28.36C108.52 33.4 104.86 36.9 99.7 36.9C94.58 36.9 90.88 33.4 90.88 28.36ZM96.78 28.36C96.78 30.68 97.92 32.06 99.7 32.06C101.52 32.06 102.62 30.68 102.62 28.36C102.62 26.06 101.52 24.7 99.7 24.7C97.92 24.7 96.78 26.06 96.78 28.36Z" fill="#10251B"/>
  <path d="M110.72 28.38C110.72 23.3 113.74 19.86 118.08 19.86C120.1 19.86 121.74 20.62 122.76 22V14.2H128.58V36.5H123.18L122.86 34.24C121.78 35.94 120.08 36.88 117.86 36.88C113.6 36.88 110.72 33.42 110.72 28.38ZM116.62 28.38C116.62 30.66 117.78 32.08 119.64 32.08C121.52 32.08 122.78 30.68 122.78 28.38C122.78 26.08 121.52 24.68 119.64 24.68C117.78 24.68 116.62 26.1 116.62 28.38Z" fill="#10251B"/>
  <path d="M131.18 28.38C131.18 23.28 134.72 19.86 139.76 19.86C144.76 19.86 148.08 23.14 148.08 28.14C148.08 28.74 148.02 29.38 147.94 29.82H136.8C137.2 31.78 138.38 32.7 140.18 32.7C141.7 32.7 142.72 32.14 143.2 31.08H147.76C146.86 34.7 143.96 36.9 140.04 36.9C134.76 36.9 131.18 33.48 131.18 28.38ZM136.86 26.74H142.48C142.24 24.94 141.28 24.08 139.74 24.08C138.18 24.08 137.18 24.98 136.86 26.74Z" fill="#10251B"/>
  <circle cx="158.5" cy="33.5" r="3.5" fill="#22C76F"/>
</svg>
